<svg width="260" height="150" viewBox="25 0 280 150" fill="none" xmlns="http://www.w3.org/2000/svg">
    <g clip-path="url(#clip0_184_70)">
        <line y1="-0.5" x2="24.3712" y2="-0.5"
            transform="matrix(0.839016 -0.544107 0.457148 0.889391 132.529 28.6272)" stroke="black" />
        <line y1="-0.5" x2="24.3712" y2="-0.5"
            transform="matrix(0.839016 0.544107 -0.457148 0.889391 192.176 15.0286)" stroke="black" />
        <line y1="-0.5" x2="34.1197" y2="-0.5"
            transform="matrix(0.839016 -0.544107 0.457148 0.889391 142.593 31.8252)" stroke="black" />
        <line y1="-0.5" x2="24.3712" y2="-0.5"
            transform="matrix(0.839016 -0.544107 0.457148 0.889391 152.824 35.3613)" stroke="black" />
        <line y1="-0.5" x2="12.1856" y2="-0.5"
            transform="matrix(0.839016 -0.544107 0.457148 0.889391 141.806 42.8757)" stroke="black" />
        <line y1="-0.5" x2="12.1856" y2="-0.5"
            transform="matrix(0.839016 0.544107 -0.457148 0.889391 192.176 36.2456)" stroke="black" />
        <line y1="-0.5" x2="8.12374" y2="-0.5"
            transform="matrix(0.839016 0.544107 -0.457148 0.889391 133.936 29.1731)" stroke="black" />
        <line y1="-0.5" x2="8.12374" y2="-0.5"
            transform="matrix(0.839016 -0.544107 0.457148 0.889391 205.556 32.7095)" stroke="black" />
        <line y1="-0.5" x2="12.1856" y2="-0.5"
            transform="matrix(0.839016 -0.544107 0.457148 0.889391 181.944 42.8757)" stroke="black" />
        <line y1="-0.5" x2="12.1856" y2="-0.5"
            transform="matrix(0.839016 0.544107 -0.457148 0.889391 152.824 36.2456)" stroke="black" />
        <line y1="-0.5" x2="12.1856" y2="-0.5"
            transform="matrix(0.839016 0.544107 -0.457148 0.889391 171.713 36.2456)" stroke="black" />
        <line y1="-0.5" x2="12.1856" y2="-0.5"
            transform="matrix(0.839016 -0.544107 0.457148 0.889391 163.056 42.8757)" stroke="black" />
        <line y1="-0.5" x2="24.3712" y2="-0.5"
            transform="matrix(0.839016 0.544107 -0.457148 0.889391 172.5 22.9851)" stroke="black" />
        <line y1="-0.5" x2="34.1197" y2="-0.5"
            transform="matrix(0.839016 0.544107 -0.457148 0.889391 174.074 13.2607)" stroke="black" />
        <line y1="-0.5" x2="20.3093" y2="-0.5"
            transform="matrix(0.839016 -0.544107 0.457148 0.889391 153.611 15.0286)" stroke="black" />
        <line y1="-0.5" x2="20.3093" y2="-0.5"
            transform="matrix(0.839016 0.544107 -0.457148 0.889391 174.074 3.53613)" stroke="black" />
        <circle cx="172.5" cy="2.5" r="2" fill="black" stroke="black" />
        <circle cx="172.5" cy="13.5" r="2" fill="black" stroke="black" />
        <circle cx="153.5" cy="14.5" r="2" fill="black" stroke="black" />
        <circle cx="132.5" cy="28.5" r="2" fill="black" stroke="black" />
        <path
            d="M141 30.5C142.47 30.5 143.5 31.4769 143.5 32.5C143.5 33.5231 142.47 34.5 141 34.5C139.53 34.5 138.5 33.5231 138.5 32.5C138.5 31.4769 139.53 30.5 141 30.5Z"
            fill="black" stroke="black" />
        <path
            d="M153 33.5C153.73 33.5 154.5 34.2855 154.5 35.5C154.5 36.7145 153.73 37.5 153 37.5C152.27 37.5 151.5 36.7145 151.5 35.5C151.5 34.2855 152.27 33.5 153 33.5Z"
            fill="black" stroke="black" />
        <path
            d="M141 40.5C142.47 40.5 143.5 41.4769 143.5 42.5C143.5 43.5231 142.47 44.5 141 44.5C139.53 44.5 138.5 43.5231 138.5 42.5C138.5 41.4769 139.53 40.5 141 40.5Z"
            fill="black" stroke="black" />
        <path
            d="M204 40.5C205.47 40.5 206.5 41.4769 206.5 42.5C206.5 43.5231 205.47 44.5 204 44.5C202.53 44.5 201.5 43.5231 201.5 42.5C201.5 41.4769 202.53 40.5 204 40.5Z"
            fill="black" stroke="black" />
        <path
            d="M192 33.5C192.73 33.5 193.5 34.2855 193.5 35.5C193.5 36.7145 192.73 37.5 192 37.5C191.27 37.5 190.5 36.7145 190.5 35.5C190.5 34.2855 191.27 33.5 192 33.5Z"
            fill="black" stroke="black" />
        <circle cx="212.5" cy="28.5" r="2" fill="black" stroke="black" />
        <circle cx="172.5" cy="22.5" r="2" fill="black" stroke="black" />
        <circle cx="172.5" cy="35.5" r="2" fill="black" stroke="black" />
        <path
            d="M204 30.5C205.47 30.5 206.5 31.4769 206.5 32.5C206.5 33.5231 205.47 34.5 204 34.5C202.53 34.5 201.5 33.5231 201.5 32.5C201.5 31.4769 202.53 30.5 204 30.5Z"
            fill="black" stroke="black" />
        <circle cx="192.5" cy="14.5" r="2" fill="black" stroke="black" />
        <rect x="172.25" y="14.25" width="0.5" height="6.5" fill="black" stroke="black"
            stroke-width="0.5" />
        <rect x="172.25" y="3.25" width="0.5" height="7.5" fill="black" stroke="black"
            stroke-width="0.5" />
        <line y1="-0.5" x2="24.3712" y2="-0.5"
            transform="matrix(-0.839016 0.544107 -0.457148 -0.889391 212.471 120.373)"
            stroke="black" />
        <line y1="-0.5" x2="24.3712" y2="-0.5"
            transform="matrix(-0.839016 -0.544107 0.457148 -0.889391 152.824 133.972)"
            stroke="black" />
        <line y1="-0.5" x2="34.1197" y2="-0.5"
            transform="matrix(-0.839016 0.544107 -0.457148 -0.889391 202.407 117.175)"
            stroke="black" />
        <line y1="-0.5" x2="24.3712" y2="-0.5"
            transform="matrix(-0.839016 0.544107 -0.457148 -0.889391 192.176 113.639)"
            stroke="black" />
        <line y1="-0.5" x2="12.1856" y2="-0.5"
            transform="matrix(-0.839016 0.544107 -0.457148 -0.889391 203.194 106.124)"
            stroke="black" />
        <line y1="-0.5" x2="12.1856" y2="-0.5"
            transform="matrix(-0.839016 -0.544107 0.457148 -0.889391 152.824 112.754)"
            stroke="black" />
        <line y1="-0.5" x2="8.12374" y2="-0.5"
            transform="matrix(-0.839016 -0.544107 0.457148 -0.889391 211.064 119.827)"
            stroke="black" />
        <line y1="-0.5" x2="8.12374" y2="-0.5"
            transform="matrix(-0.839016 0.544107 -0.457148 -0.889391 139.444 116.291)"
            stroke="black" />
        <line y1="-0.5" x2="12.1856" y2="-0.5"
            transform="matrix(-0.839016 0.544107 -0.457148 -0.889391 163.056 106.124)"
            stroke="black" />
        <line y1="-0.5" x2="12.1856" y2="-0.5"
            transform="matrix(-0.839016 -0.544107 0.457148 -0.889391 192.176 112.754)"
            stroke="black" />
        <line y1="-0.5" x2="12.1856" y2="-0.5"
            transform="matrix(-0.839016 -0.544107 0.457148 -0.889391 173.287 112.754)"
            stroke="black" />
        <line y1="-0.5" x2="12.1856" y2="-0.5"
            transform="matrix(-0.839016 0.544107 -0.457148 -0.889391 181.944 106.124)"
            stroke="black" />
        <line y1="-0.5" x2="24.3712" y2="-0.5"
            transform="matrix(-0.839016 -0.544107 0.457148 -0.889391 172.5 126.015)" stroke="black" />
        <line y1="-0.5" x2="34.1197" y2="-0.5"
            transform="matrix(-0.839016 -0.544107 0.457148 -0.889391 170.926 135.739)"
            stroke="black" />
        <line y1="-0.5" x2="20.3093" y2="-0.5"
            transform="matrix(-0.839016 0.544107 -0.457148 -0.889391 191.389 133.972)"
            stroke="black" />
        <line y1="-0.5" x2="20.3093" y2="-0.5"
            transform="matrix(-0.839016 -0.544107 0.457148 -0.889391 170.926 145.464)"
            stroke="black" />
        <circle cx="172.5" cy="146.5" r="2" transform="rotate(180 172.5 146.5)" fill="black"
            stroke="black" />
        <circle cx="172.5" cy="135.5" r="2" transform="rotate(180 172.5 135.5)" fill="black"
            stroke="black" />
        <circle cx="191.5" cy="134.5" r="2" transform="rotate(180 191.5 134.5)" fill="black"
            stroke="black" />
        <circle cx="212.5" cy="120.5" r="2" transform="rotate(180 212.5 120.5)" fill="black"
            stroke="black" />
        <path
            d="M204 118.5C202.53 118.5 201.5 117.523 201.5 116.5C201.5 115.477 202.53 114.5 204 114.5C205.47 114.5 206.5 115.477 206.5 116.5C206.5 117.523 205.47 118.5 204 118.5Z"
            fill="black" stroke="black" />
        <path
            d="M192 115.5C191.27 115.5 190.5 114.714 190.5 113.5C190.5 112.286 191.27 111.5 192 111.5C192.73 111.5 193.5 112.286 193.5 113.5C193.5 114.714 192.73 115.5 192 115.5Z"
            fill="black" stroke="black" />
        <path
            d="M204 108.5C202.53 108.5 201.5 107.523 201.5 106.5C201.5 105.477 202.53 104.5 204 104.5C205.47 104.5 206.5 105.477 206.5 106.5C206.5 107.523 205.47 108.5 204 108.5Z"
            fill="black" stroke="black" />
        <path
            d="M141 108.5C139.53 108.5 138.5 107.523 138.5 106.5C138.5 105.477 139.53 104.5 141 104.5C142.47 104.5 143.5 105.477 143.5 106.5C143.5 107.523 142.47 108.5 141 108.5Z"
            fill="black" stroke="black" />
        <path
            d="M153 115.5C152.27 115.5 151.5 114.714 151.5 113.5C151.5 112.286 152.27 111.5 153 111.5C153.73 111.5 154.5 112.286 154.5 113.5C154.5 114.714 153.73 115.5 153 115.5Z"
            fill="black" stroke="black" />
        <circle cx="132.5" cy="120.5" r="2" transform="rotate(180 132.5 120.5)" fill="black"
            stroke="black" />
        <circle cx="172.5" cy="126.5" r="2" transform="rotate(180 172.5 126.5)" fill="black"
            stroke="black" />
        <circle cx="172.5" cy="113.5" r="2" transform="rotate(180 172.5 113.5)" fill="black"
            stroke="black" />
        <path
            d="M141 118.5C139.53 118.5 138.5 117.523 138.5 116.5C138.5 115.477 139.53 114.5 141 114.5C142.47 114.5 143.5 115.477 143.5 116.5C143.5 117.523 142.47 118.5 141 118.5Z"
            fill="black" stroke="black" />
        <circle cx="152.5" cy="134.5" r="2" transform="rotate(180 152.5 134.5)" fill="black"
            stroke="black" />
        <rect x="172.75" y="134.75" width="0.5" height="6.5" transform="rotate(180 172.75 134.75)"
            fill="black" stroke="black" stroke-width="0.5" />
        <rect x="172.75" y="145.75" width="0.5" height="7.5" transform="rotate(180 172.75 145.75)"
            fill="black" stroke="black" stroke-width="0.5" />
        <mask id="path-65-outside-1_184_70" maskUnits="userSpaceOnUse" x="86" y="56" width="175"
            height="33" fill="black">
            <rect fill="white" x="86" y="56" width="175" height="33" />
            <path
                d="M96.8608 87.4545C94.91 87.4545 93.2102 86.9669 91.7614 85.9915C90.322 85.0161 89.2045 83.6809 88.4091 81.9858C87.6136 80.2907 87.2159 78.3589 87.2159 76.1903C87.2159 74.0028 87.6184 72.0568 88.4233 70.3523C89.2377 68.6477 90.3646 67.3125 91.804 66.3466C93.2434 65.3712 94.9148 64.8835 96.8182 64.8835C98.2765 64.8835 99.5975 65.1676 100.781 65.7358C101.965 66.2945 102.94 67.0852 103.707 68.108C104.484 69.1212 104.972 70.3049 105.17 71.6591H102.614C102.348 70.428 101.709 69.3769 100.696 68.5057C99.6922 67.625 98.4138 67.1847 96.8608 67.1847C95.4688 67.1847 94.2377 67.5634 93.1676 68.321C92.0975 69.0691 91.2595 70.1155 90.6534 71.4602C90.0568 72.7955 89.7585 74.3437 89.7585 76.1051C89.7585 77.8759 90.0521 79.4432 90.6392 80.8068C91.2263 82.161 92.0502 83.2216 93.1108 83.9886C94.1809 84.7557 95.4309 85.1392 96.8608 85.1392C97.8267 85.1392 98.7074 84.9593 99.5028 84.5994C100.308 84.2301 100.98 83.7093 101.52 83.0369C102.069 82.3646 102.438 81.5644 102.628 80.6364H105.185C104.995 81.9527 104.527 83.1269 103.778 84.1591C103.04 85.1818 102.079 85.9867 100.895 86.5739C99.7206 87.161 98.3759 87.4545 96.8608 87.4545ZM119.084 87.4545C117.199 87.4545 115.533 86.9763 114.084 86.0199C112.644 85.0634 111.518 83.7424 110.703 82.0568C109.889 80.3617 109.482 78.4062 109.482 76.1903C109.482 73.9555 109.889 71.9905 110.703 70.2955C111.518 68.5909 112.644 67.2652 114.084 66.3182C115.533 65.3617 117.199 64.8835 119.084 64.8835C120.968 64.8835 122.63 65.3617 124.07 66.3182C125.509 67.2746 126.636 68.6004 127.45 70.2955C128.274 71.9905 128.686 73.9555 128.686 76.1903C128.686 78.4062 128.279 80.3617 127.464 82.0568C126.65 83.7424 125.518 85.0634 124.07 86.0199C122.63 86.9763 120.968 87.4545 119.084 87.4545ZM119.084 85.1392C120.599 85.1392 121.882 84.732 122.933 83.9176C123.984 83.1032 124.78 82.0189 125.32 80.6648C125.869 79.3106 126.143 77.8191 126.143 76.1903C126.143 74.5616 125.869 73.0653 125.32 71.7017C124.78 70.3381 123.984 69.2443 122.933 68.4205C121.882 67.5966 120.599 67.1847 119.084 67.1847C117.578 67.1847 116.295 67.5966 115.234 68.4205C114.183 69.2443 113.383 70.3381 112.834 71.7017C112.294 73.0653 112.024 74.5616 112.024 76.1903C112.024 77.8191 112.294 79.3106 112.834 80.6648C113.383 82.0189 114.183 83.1032 115.234 83.9176C116.286 84.732 117.569 85.1392 119.084 85.1392ZM134.237 87V65.1818H136.694V68.5341H136.879C137.314 67.4356 138.072 66.5502 139.151 65.8778C140.24 65.196 141.471 64.8551 142.844 64.8551C143.053 64.8551 143.285 64.8598 143.54 64.8693C143.796 64.8788 144.009 64.8883 144.18 64.8977V67.4688C144.066 67.4498 143.867 67.4214 143.583 67.3835C143.299 67.3456 142.991 67.3267 142.66 67.3267C141.523 67.3267 140.51 67.5682 139.62 68.0511C138.739 68.5246 138.043 69.1828 137.532 70.0256C137.021 70.8684 136.765 71.8295 136.765 72.9091V87H134.237ZM156.651 87.4545C154.615 87.4545 152.854 86.9811 151.367 86.0341C149.88 85.0777 148.73 83.7566 147.915 82.071C147.111 80.3759 146.708 78.4252 146.708 76.2188C146.708 74.0218 147.111 72.071 147.915 70.3665C148.73 68.6525 149.852 67.3125 151.282 66.3466C152.721 65.3712 154.383 64.8835 156.268 64.8835C157.451 64.8835 158.593 65.1013 159.691 65.5369C160.79 65.9631 161.774 66.6212 162.646 67.5114C163.526 68.392 164.222 69.5047 164.734 70.8494C165.245 72.1847 165.501 73.7661 165.501 75.5938V76.8438H148.455V74.6136H162.915C162.915 73.2121 162.631 71.9527 162.063 70.8352C161.504 69.7083 160.723 68.8182 159.719 68.1648C158.725 67.5114 157.575 67.1847 156.268 67.1847C154.885 67.1847 153.668 67.554 152.617 68.2926C151.566 69.0312 150.742 70.0066 150.146 71.2188C149.558 72.4309 149.26 73.7566 149.251 75.196V76.5312C149.251 78.2642 149.549 79.7794 150.146 81.0767C150.752 82.3646 151.609 83.3636 152.717 84.0739C153.825 84.7841 155.136 85.1392 156.651 85.1392C157.683 85.1392 158.588 84.9782 159.364 84.6562C160.15 84.3343 160.808 83.9034 161.339 83.3636C161.879 82.8144 162.286 82.2131 162.56 81.5597L164.961 82.3409C164.629 83.2595 164.085 84.107 163.327 84.8835C162.579 85.66 161.642 86.285 160.515 86.7585C159.397 87.2225 158.11 87.4545 156.651 87.4545ZM179.666 65.1818V67.3835H169.254V65.1818H179.666ZM172.507 59.9545H175.05V81.304C175.05 82.2131 175.206 82.928 175.518 83.4489C175.831 83.9602 176.238 84.3248 176.74 84.5426C177.242 84.7509 177.777 84.8551 178.345 84.8551C178.677 84.8551 178.961 84.8362 179.197 84.7983C179.434 84.7509 179.643 84.7036 179.822 84.6562L180.362 86.9432C180.116 87.0379 179.813 87.1231 179.453 87.1989C179.093 87.2841 178.648 87.3267 178.118 87.3267C177.19 87.3267 176.295 87.1231 175.433 86.7159C174.581 86.3087 173.88 85.7027 173.331 84.8977C172.782 84.0928 172.507 83.0938 172.507 81.9006V59.9545ZM188.406 73.3636V87H185.877V57.9091H188.406V68.6051H188.633C189.144 67.4782 189.935 66.5786 191.005 65.9062C192.085 65.2339 193.448 64.8977 195.096 64.8977C196.573 64.8977 197.871 65.2008 198.988 65.8068C200.105 66.4129 200.977 67.3078 201.602 68.4915C202.227 69.6752 202.539 71.1335 202.539 72.8665V87H199.996V73.0227C199.996 71.2235 199.495 69.8078 198.491 68.7756C197.496 67.7339 196.152 67.2131 194.457 67.2131C193.292 67.2131 192.255 67.4593 191.346 67.9517C190.437 68.4441 189.717 69.1544 189.187 70.0824C188.666 71.0009 188.406 72.0947 188.406 73.3636ZM209.226 87V65.1818H211.768V87H209.226ZM210.518 61.4318C209.998 61.4318 209.553 61.2566 209.183 60.9062C208.814 60.5464 208.629 60.1155 208.629 59.6136C208.629 59.1117 208.814 58.6856 209.183 58.3352C209.553 57.9754 209.998 57.7955 210.518 57.7955C211.039 57.7955 211.484 57.9754 211.854 58.3352C212.223 58.6856 212.408 59.1117 212.408 59.6136C212.408 60.1155 212.223 60.5464 211.854 60.9062C211.484 61.2566 211.039 61.4318 210.518 61.4318ZM220.984 73.3636V87H218.455V65.1818H220.913V68.6051H221.14C221.651 67.4877 222.447 66.5928 223.526 65.9205C224.615 65.2386 225.96 64.8977 227.56 64.8977C229.028 64.8977 230.316 65.2055 231.424 65.821C232.541 66.4271 233.408 67.322 234.023 68.5057C234.648 69.6894 234.961 71.143 234.961 72.8665V87H232.433V73.0227C232.433 71.233 231.931 69.8172 230.927 68.7756C229.933 67.7339 228.597 67.2131 226.921 67.2131C225.775 67.2131 224.757 67.4593 223.867 67.9517C222.977 68.4441 222.272 69.1544 221.751 70.0824C221.239 71.0009 220.984 72.0947 220.984 73.3636ZM243.92 78.7614L243.892 75.4517H244.46L254.688 65.1818H257.884L247.784 75.2955L247.557 75.3381L243.92 78.7614ZM241.619 87V57.9091H244.148V87H241.619ZM255.213 87L246.349 75.7926L248.168 74.0455L258.452 87H255.213Z" />
        </mask>
        <path
            d="M96.8608 87.4545C94.91 87.4545 93.2102 86.9669 91.7614 85.9915C90.322 85.0161 89.2045 83.6809 88.4091 81.9858C87.6136 80.2907 87.2159 78.3589 87.2159 76.1903C87.2159 74.0028 87.6184 72.0568 88.4233 70.3523C89.2377 68.6477 90.3646 67.3125 91.804 66.3466C93.2434 65.3712 94.9148 64.8835 96.8182 64.8835C98.2765 64.8835 99.5975 65.1676 100.781 65.7358C101.965 66.2945 102.94 67.0852 103.707 68.108C104.484 69.1212 104.972 70.3049 105.17 71.6591H102.614C102.348 70.428 101.709 69.3769 100.696 68.5057C99.6922 67.625 98.4138 67.1847 96.8608 67.1847C95.4688 67.1847 94.2377 67.5634 93.1676 68.321C92.0975 69.0691 91.2595 70.1155 90.6534 71.4602C90.0568 72.7955 89.7585 74.3437 89.7585 76.1051C89.7585 77.8759 90.0521 79.4432 90.6392 80.8068C91.2263 82.161 92.0502 83.2216 93.1108 83.9886C94.1809 84.7557 95.4309 85.1392 96.8608 85.1392C97.8267 85.1392 98.7074 84.9593 99.5028 84.5994C100.308 84.2301 100.98 83.7093 101.52 83.0369C102.069 82.3646 102.438 81.5644 102.628 80.6364H105.185C104.995 81.9527 104.527 83.1269 103.778 84.1591C103.04 85.1818 102.079 85.9867 100.895 86.5739C99.7206 87.161 98.3759 87.4545 96.8608 87.4545ZM119.084 87.4545C117.199 87.4545 115.533 86.9763 114.084 86.0199C112.644 85.0634 111.518 83.7424 110.703 82.0568C109.889 80.3617 109.482 78.4062 109.482 76.1903C109.482 73.9555 109.889 71.9905 110.703 70.2955C111.518 68.5909 112.644 67.2652 114.084 66.3182C115.533 65.3617 117.199 64.8835 119.084 64.8835C120.968 64.8835 122.63 65.3617 124.07 66.3182C125.509 67.2746 126.636 68.6004 127.45 70.2955C128.274 71.9905 128.686 73.9555 128.686 76.1903C128.686 78.4062 128.279 80.3617 127.464 82.0568C126.65 83.7424 125.518 85.0634 124.07 86.0199C122.63 86.9763 120.968 87.4545 119.084 87.4545ZM119.084 85.1392C120.599 85.1392 121.882 84.732 122.933 83.9176C123.984 83.1032 124.78 82.0189 125.32 80.6648C125.869 79.3106 126.143 77.8191 126.143 76.1903C126.143 74.5616 125.869 73.0653 125.32 71.7017C124.78 70.3381 123.984 69.2443 122.933 68.4205C121.882 67.5966 120.599 67.1847 119.084 67.1847C117.578 67.1847 116.295 67.5966 115.234 68.4205C114.183 69.2443 113.383 70.3381 112.834 71.7017C112.294 73.0653 112.024 74.5616 112.024 76.1903C112.024 77.8191 112.294 79.3106 112.834 80.6648C113.383 82.0189 114.183 83.1032 115.234 83.9176C116.286 84.732 117.569 85.1392 119.084 85.1392ZM134.237 87V65.1818H136.694V68.5341H136.879C137.314 67.4356 138.072 66.5502 139.151 65.8778C140.24 65.196 141.471 64.8551 142.844 64.8551C143.053 64.8551 143.285 64.8598 143.54 64.8693C143.796 64.8788 144.009 64.8883 144.18 64.8977V67.4688C144.066 67.4498 143.867 67.4214 143.583 67.3835C143.299 67.3456 142.991 67.3267 142.66 67.3267C141.523 67.3267 140.51 67.5682 139.62 68.0511C138.739 68.5246 138.043 69.1828 137.532 70.0256C137.021 70.8684 136.765 71.8295 136.765 72.9091V87H134.237ZM156.651 87.4545C154.615 87.4545 152.854 86.9811 151.367 86.0341C149.88 85.0777 148.73 83.7566 147.915 82.071C147.111 80.3759 146.708 78.4252 146.708 76.2188C146.708 74.0218 147.111 72.071 147.915 70.3665C148.73 68.6525 149.852 67.3125 151.282 66.3466C152.721 65.3712 154.383 64.8835 156.268 64.8835C157.451 64.8835 158.593 65.1013 159.691 65.5369C160.79 65.9631 161.774 66.6212 162.646 67.5114C163.526 68.392 164.222 69.5047 164.734 70.8494C165.245 72.1847 165.501 73.7661 165.501 75.5938V76.8438H148.455V74.6136H162.915C162.915 73.2121 162.631 71.9527 162.063 70.8352C161.504 69.7083 160.723 68.8182 159.719 68.1648C158.725 67.5114 157.575 67.1847 156.268 67.1847C154.885 67.1847 153.668 67.554 152.617 68.2926C151.566 69.0312 150.742 70.0066 150.146 71.2188C149.558 72.4309 149.26 73.7566 149.251 75.196V76.5312C149.251 78.2642 149.549 79.7794 150.146 81.0767C150.752 82.3646 151.609 83.3636 152.717 84.0739C153.825 84.7841 155.136 85.1392 156.651 85.1392C157.683 85.1392 158.588 84.9782 159.364 84.6562C160.15 84.3343 160.808 83.9034 161.339 83.3636C161.879 82.8144 162.286 82.2131 162.56 81.5597L164.961 82.3409C164.629 83.2595 164.085 84.107 163.327 84.8835C162.579 85.66 161.642 86.285 160.515 86.7585C159.397 87.2225 158.11 87.4545 156.651 87.4545ZM179.666 65.1818V67.3835H169.254V65.1818H179.666ZM172.507 59.9545H175.05V81.304C175.05 82.2131 175.206 82.928 175.518 83.4489C175.831 83.9602 176.238 84.3248 176.74 84.5426C177.242 84.7509 177.777 84.8551 178.345 84.8551C178.677 84.8551 178.961 84.8362 179.197 84.7983C179.434 84.7509 179.643 84.7036 179.822 84.6562L180.362 86.9432C180.116 87.0379 179.813 87.1231 179.453 87.1989C179.093 87.2841 178.648 87.3267 178.118 87.3267C177.19 87.3267 176.295 87.1231 175.433 86.7159C174.581 86.3087 173.88 85.7027 173.331 84.8977C172.782 84.0928 172.507 83.0938 172.507 81.9006V59.9545ZM188.406 73.3636V87H185.877V57.9091H188.406V68.6051H188.633C189.144 67.4782 189.935 66.5786 191.005 65.9062C192.085 65.2339 193.448 64.8977 195.096 64.8977C196.573 64.8977 197.871 65.2008 198.988 65.8068C200.105 66.4129 200.977 67.3078 201.602 68.4915C202.227 69.6752 202.539 71.1335 202.539 72.8665V87H199.996V73.0227C199.996 71.2235 199.495 69.8078 198.491 68.7756C197.496 67.7339 196.152 67.2131 194.457 67.2131C193.292 67.2131 192.255 67.4593 191.346 67.9517C190.437 68.4441 189.717 69.1544 189.187 70.0824C188.666 71.0009 188.406 72.0947 188.406 73.3636ZM209.226 87V65.1818H211.768V87H209.226ZM210.518 61.4318C209.998 61.4318 209.553 61.2566 209.183 60.9062C208.814 60.5464 208.629 60.1155 208.629 59.6136C208.629 59.1117 208.814 58.6856 209.183 58.3352C209.553 57.9754 209.998 57.7955 210.518 57.7955C211.039 57.7955 211.484 57.9754 211.854 58.3352C212.223 58.6856 212.408 59.1117 212.408 59.6136C212.408 60.1155 212.223 60.5464 211.854 60.9062C211.484 61.2566 211.039 61.4318 210.518 61.4318ZM220.984 73.3636V87H218.455V65.1818H220.913V68.6051H221.14C221.651 67.4877 222.447 66.5928 223.526 65.9205C224.615 65.2386 225.96 64.8977 227.56 64.8977C229.028 64.8977 230.316 65.2055 231.424 65.821C232.541 66.4271 233.408 67.322 234.023 68.5057C234.648 69.6894 234.961 71.143 234.961 72.8665V87H232.433V73.0227C232.433 71.233 231.931 69.8172 230.927 68.7756C229.933 67.7339 228.597 67.2131 226.921 67.2131C225.775 67.2131 224.757 67.4593 223.867 67.9517C222.977 68.4441 222.272 69.1544 221.751 70.0824C221.239 71.0009 220.984 72.0947 220.984 73.3636ZM243.92 78.7614L243.892 75.4517H244.46L254.688 65.1818H257.884L247.784 75.2955L247.557 75.3381L243.92 78.7614ZM241.619 87V57.9091H244.148V87H241.619ZM255.213 87L246.349 75.7926L248.168 74.0455L258.452 87H255.213Z"
            fill="black" />
        <path
            d="M91.7614 85.9915L91.2004 86.8193L91.2029 86.821L91.7614 85.9915ZM88.4091 81.9858L89.3144 81.561L89.3144 81.561L88.4091 81.9858ZM88.4233 70.3523L87.521 69.9212L87.519 69.9253L88.4233 70.3523ZM91.804 66.3466L92.3612 67.177L92.3649 67.1744L91.804 66.3466ZM100.781 65.7358L100.349 66.6373L100.354 66.6401L100.781 65.7358ZM103.707 68.108L102.907 68.708L102.914 68.7162L103.707 68.108ZM105.17 71.6591V72.6591H106.328L106.16 71.5138L105.17 71.6591ZM102.614 71.6591L101.636 71.8696L101.806 72.6591H102.614V71.6591ZM100.696 68.5057L100.036 69.2574L100.044 69.2639L100.696 68.5057ZM93.1676 68.321L93.7406 69.1406L93.7454 69.1372L93.1676 68.321ZM90.6534 71.4602L89.7417 71.0493L89.7404 71.0523L90.6534 71.4602ZM90.6392 80.8068L89.7207 81.2023L89.7217 81.2046L90.6392 80.8068ZM93.1108 83.9886L92.5248 84.7989L92.5282 84.8014L93.1108 83.9886ZM99.5028 84.5994L99.915 85.5106L99.9199 85.5083L99.5028 84.5994ZM101.52 83.0369L100.745 82.4043L100.74 82.4109L101.52 83.0369ZM102.628 80.6364V79.6364H101.811L101.648 80.4364L102.628 80.6364ZM105.185 80.6364L106.174 80.7788L106.339 79.6364H105.185V80.6364ZM103.778 84.1591L102.969 83.5722L102.968 83.5736L103.778 84.1591ZM100.895 86.5739L100.451 85.678L100.448 85.6794L100.895 86.5739ZM96.8608 87.4545V86.4545C95.0849 86.4545 93.5847 86.0134 92.3198 85.1619L91.7614 85.9915L91.2029 86.821C92.8358 87.9203 94.7352 88.4545 96.8608 88.4545V87.4545ZM91.7614 85.9915L92.3223 85.1636C91.0433 84.2969 90.0395 83.1062 89.3144 81.561L88.4091 81.9858L87.5038 82.4106C88.3696 84.2556 89.6006 85.7353 91.2004 86.8193L91.7614 85.9915ZM88.4091 81.9858L89.3144 81.561C88.5904 80.0183 88.2159 78.2352 88.2159 76.1903H87.2159H86.2159C86.2159 78.4826 86.6368 80.5631 87.5038 82.4106L88.4091 81.9858ZM87.2159 76.1903H88.2159C88.2159 74.1269 88.595 72.3305 89.3275 70.7793L88.4233 70.3523L87.519 69.9253C86.6417 71.7831 86.2159 73.8788 86.2159 76.1903H87.2159ZM88.4233 70.3523L89.3256 70.7834C90.0699 69.2254 91.0837 68.0342 92.3612 67.177L91.804 66.3466L91.2468 65.5162C89.6455 66.5908 88.4054 68.07 87.521 69.9212L88.4233 70.3523ZM91.804 66.3466L92.3649 67.1744C93.6231 66.3219 95.095 65.8835 96.8182 65.8835V64.8835V63.8835C94.7346 63.8835 92.8636 64.4206 91.243 65.5188L91.804 66.3466ZM96.8182 64.8835V65.8835C98.1435 65.8835 99.3142 66.1408 100.349 66.6373L100.781 65.7358L101.214 64.8343C99.8809 64.1944 98.4096 63.8835 96.8182 63.8835V64.8835ZM100.781 65.7358L100.354 66.6401C101.394 67.131 102.24 67.8187 102.907 68.708L103.707 68.108L104.507 67.508C103.64 66.3517 102.535 65.458 101.208 64.8315L100.781 65.7358ZM103.707 68.108L102.914 68.7162C103.579 69.5846 104.005 70.6062 104.181 71.8044L105.17 71.6591L106.16 71.5138C105.938 70.0037 105.389 68.6578 104.501 67.4997L103.707 68.108ZM105.17 71.6591V70.6591H102.614V71.6591V72.6591H105.17V71.6591ZM102.614 71.6591L103.591 71.4485C103.277 69.9908 102.516 68.7515 101.348 67.7474L100.696 68.5057L100.044 69.2639C100.903 70.0023 101.42 70.8653 101.636 71.8696L102.614 71.6591ZM100.696 68.5057L101.356 67.754C100.14 66.6876 98.6146 66.1847 96.8608 66.1847V67.1847V68.1847C98.2131 68.1847 99.2444 68.5624 100.037 69.2574L100.696 68.5057ZM96.8608 67.1847V66.1847C95.2753 66.1847 93.8395 66.6201 92.5898 67.5049L93.1676 68.321L93.7454 69.1372C94.6359 68.5068 95.6622 68.1847 96.8608 68.1847V67.1847ZM93.1676 68.321L92.5946 67.5014C91.3585 68.3657 90.412 69.5622 89.7417 71.0493L90.6534 71.4602L91.5651 71.8711C92.1069 70.6689 92.8366 69.7726 93.7406 69.1406L93.1676 68.321ZM90.6534 71.4602L89.7404 71.0523C89.076 72.5393 88.7585 74.2314 88.7585 76.1051H89.7585H90.7585C90.7585 74.4561 91.0377 73.0516 91.5664 71.8682L90.6534 71.4602ZM89.7585 76.1051H88.7585C88.7585 77.9862 89.0705 79.6921 89.7207 81.2023L90.6392 80.8068L91.5577 80.4114C91.0337 79.1943 90.7585 77.7657 90.7585 76.1051H89.7585ZM90.6392 80.8068L89.7217 81.2046C90.371 82.702 91.3008 83.9137 92.5248 84.7989L93.1108 83.9886L93.6968 83.1783C92.7996 82.5295 92.0817 81.6199 91.5567 80.409L90.6392 80.8068ZM93.1108 83.9886L92.5282 84.8014C93.7829 85.7008 95.2408 86.1392 96.8608 86.1392V85.1392V84.1392C95.6209 84.1392 94.5788 83.8106 93.6934 83.1759L93.1108 83.9886ZM96.8608 85.1392V86.1392C97.9536 86.1392 98.9769 85.9349 99.915 85.5105L99.5028 84.5994L99.0907 83.6883C98.4379 83.9836 97.6998 84.1392 96.8608 84.1392V85.1392ZM99.5028 84.5994L99.9199 85.5083C100.862 85.076 101.66 84.4599 102.3 83.663L101.52 83.0369L100.74 82.4109C100.3 82.9587 99.7534 83.3842 99.0858 83.6905L99.5028 84.5994ZM101.52 83.0369L102.294 83.6696C102.955 82.8606 103.389 81.9083 103.608 80.8363L102.628 80.6364L101.648 80.4364C101.488 81.2205 101.183 81.8686 100.745 82.4043L101.52 83.0369ZM102.628 80.6364V81.6364H105.185V80.6364V79.6364H102.628V80.6364ZM105.185 80.6364L104.195 80.4939C104.028 81.6568 103.617 82.6771 102.969 83.5722L103.778 84.1591L104.588 84.7459C105.436 83.5767 105.963 82.2485 106.174 80.7788L105.185 80.6364ZM103.778 84.1591L102.968 83.5736C102.329 84.4584 101.496 85.1595 100.451 85.678L100.895 86.5739L101.339 87.4697C102.661 86.814 103.751 85.9053 104.589 84.7446L103.778 84.1591ZM100.895 86.5739L100.448 85.6794C99.4322 86.1872 98.2447 86.4545 96.8608 86.4545V87.4545V88.4545C98.5072 88.4545 100.009 88.1348 101.342 87.4683L100.895 86.5739ZM114.084 86.0199L113.53 86.8528L113.533 86.8544L114.084 86.0199ZM110.703 82.0568L109.802 82.4899L109.803 82.4919L110.703 82.0568ZM110.703 70.2955L111.604 70.7285L111.605 70.7266L110.703 70.2955ZM114.084 66.3182L114.633 67.1536L114.635 67.1527L114.084 66.3182ZM124.07 66.3182L124.623 65.4853L124.623 65.4853L124.07 66.3182ZM127.45 70.2955L126.549 70.7285L126.551 70.7326L127.45 70.2955ZM127.464 82.0568L128.365 82.4919L128.366 82.4899L127.464 82.0568ZM124.07 86.0199L123.519 85.1853L123.516 85.187L124.07 86.0199ZM122.933 83.9176L122.321 83.1271L122.321 83.1271L122.933 83.9176ZM125.32 80.6648L124.393 80.2889L124.391 80.2945L125.32 80.6648ZM125.32 71.7017L124.39 72.0698L124.392 72.0753L125.32 71.7017ZM122.933 68.4205L123.55 67.6334L123.55 67.6334L122.933 68.4205ZM115.234 68.4205L114.621 67.6307L114.617 67.6334L115.234 68.4205ZM112.834 71.7017L111.906 71.3281L111.904 71.3337L112.834 71.7017ZM112.834 80.6648L111.905 81.035L111.907 81.0406L112.834 80.6648ZM115.234 83.9176L114.622 84.7081L114.622 84.7081L115.234 83.9176ZM119.084 87.4545V86.4545C117.378 86.4545 115.906 86.0246 114.635 85.1853L114.084 86.0199L113.533 86.8544C115.159 87.928 117.021 88.4545 119.084 88.4545V87.4545ZM114.084 86.0199L114.637 85.187C113.359 84.3379 112.347 83.16 111.604 81.6218L110.703 82.0568L109.803 82.4919C110.688 84.3249 111.929 85.789 113.53 86.8528L114.084 86.0199ZM110.703 82.0568L111.604 81.6238C110.866 80.0859 110.482 78.2829 110.482 76.1903H109.482H108.482C108.482 78.5296 108.912 80.6376 109.802 82.4899L110.703 82.0568ZM109.482 76.1903H110.482C110.482 74.0775 110.866 72.2653 111.604 70.7285L110.703 70.2955L109.802 69.8624C108.911 71.7157 108.482 73.8335 108.482 76.1903H109.482ZM110.703 70.2955L111.605 70.7266C112.349 69.17 113.361 67.9909 114.633 67.1536L114.084 66.3182L113.534 65.4828C111.928 66.5394 110.686 68.0118 109.801 69.8644L110.703 70.2955ZM114.084 66.3182L114.635 67.1527C115.906 66.3135 117.378 65.8835 119.084 65.8835V64.8835V63.8835C117.021 63.8835 115.159 64.41 113.533 65.4836L114.084 66.3182ZM119.084 64.8835V65.8835C120.79 65.8835 122.256 66.3135 123.516 67.1511L124.07 66.3182L124.623 65.4853C123.005 64.41 121.147 63.8835 119.084 63.8835V64.8835ZM124.07 66.3182L123.516 67.1511C124.793 67.9993 125.805 69.1808 126.549 70.7285L127.45 70.2955L128.352 69.8624C127.466 68.0199 126.225 66.55 124.623 65.4853L124.07 66.3182ZM127.45 70.2955L126.551 70.7326C127.297 72.2684 127.686 74.079 127.686 76.1903H128.686H129.686C129.686 73.8319 129.251 71.7127 128.35 69.8583L127.45 70.2955ZM128.686 76.1903H127.686C127.686 78.2829 127.302 80.0859 126.563 81.6238L127.464 82.0568L128.366 82.4899C129.256 80.6376 129.686 78.5296 129.686 76.1903H128.686ZM127.464 82.0568L126.564 81.6218C125.822 83.1583 124.805 84.3359 123.519 85.1853L124.07 86.0199L124.621 86.8544C126.231 85.791 127.478 84.3265 128.365 82.4919L127.464 82.0568ZM124.07 86.0199L123.516 85.187C122.256 86.0246 120.79 86.4545 119.084 86.4545V87.4545V88.4545C121.147 88.4545 123.005 87.928 124.623 86.8528L124.07 86.0199ZM119.084 85.1392V86.1392C120.788 86.1392 122.295 85.6769 123.546 84.7081L122.933 83.9176L122.321 83.1271C121.469 83.7871 120.41 84.1392 119.084 84.1392V85.1392ZM122.933 83.9176L123.546 84.7081C124.751 83.774 125.649 82.5386 126.249 81.035L125.32 80.6648L124.391 80.2945C123.91 81.4993 123.217 82.4324 122.321 83.1271L122.933 83.9176ZM125.32 80.6648L126.246 81.0406C126.849 79.5541 127.143 77.9332 127.143 76.1903H126.143H125.143C125.143 77.705 124.888 79.0671 124.393 80.2889L125.32 80.6648ZM126.143 76.1903H127.143C127.143 74.4474 126.849 72.8227 126.247 71.3281L125.32 71.7017L124.392 72.0753C124.889 73.308 125.143 74.6758 125.143 76.1903H126.143ZM125.32 71.7017L126.249 71.3337C125.651 69.8217 124.754 68.5772 123.55 67.6334L122.933 68.4205L122.316 69.2075C123.214 69.9114 123.909 70.8544 124.39 72.0698L125.32 71.7017ZM122.933 68.4205L123.55 67.6334C122.3 66.6532 120.791 66.1847 119.084 66.1847V67.1847V68.1847C120.407 68.1847 121.465 68.5399 122.316 69.2075L122.933 68.4205ZM119.084 67.1847V66.1847C117.384 66.1847 115.878 66.6541 114.621 67.6307L115.234 68.4205L115.848 69.2102C116.712 68.539 117.772 68.1847 119.084 68.1847V67.1847ZM115.234 68.4205L114.617 67.6334C113.415 68.5761 112.514 69.8186 111.906 71.3281L112.834 71.7017L113.761 72.0753C114.252 70.8575 114.952 69.9125 115.851 69.2075L115.234 68.4205ZM112.834 71.7017L111.904 71.3337C111.313 72.8267 111.024 74.4495 111.024 76.1903H112.024H113.024C113.024 74.6736 113.275 73.3039 113.764 72.0698L112.834 71.7017ZM112.024 76.1903H111.024C111.024 77.9311 111.313 79.55 111.905 81.035L112.834 80.6648L113.763 80.2945C113.275 79.0712 113.024 77.7072 113.024 76.1903H112.024ZM112.834 80.6648L111.907 81.0406C112.516 82.5417 113.418 83.7752 114.622 84.7081L115.234 83.9176L115.847 83.1271C114.949 82.4313 114.25 81.4962 113.76 80.2889L112.834 80.6648ZM115.234 83.9176L114.622 84.7081C115.872 85.6769 117.379 86.1392 119.084 86.1392V85.1392V84.1392C117.758 84.1392 116.699 83.7871 115.847 83.1271L115.234 83.9176ZM134.237 87H133.237V88H134.237V87ZM134.237 65.1818V64.1818H133.237V65.1818H134.237ZM136.694 65.1818H137.694V64.1818H136.694V65.1818ZM136.694 68.5341H135.694V69.5341H136.694V68.5341ZM136.879 68.5341V69.5341H137.558L137.808 68.9027L136.879 68.5341ZM139.151 65.8778L139.68 66.7267L139.682 66.7254L139.151 65.8778ZM143.54 64.8693L143.577 63.87L143.577 63.87L143.54 64.8693ZM144.18 64.8977H145.18V63.9517L144.235 63.8993L144.18 64.8977ZM144.18 67.4688L144.015 68.4551L145.18 68.6492V67.4688H144.18ZM143.583 67.3835L143.451 68.3748L143.451 68.3748L143.583 67.3835ZM139.62 68.0511L140.094 68.9319L140.097 68.9301L139.62 68.0511ZM137.532 70.0256L138.387 70.5443L138.387 70.5443L137.532 70.0256ZM136.765 87V88H137.765V87H136.765ZM134.237 87H135.237V65.1818H134.237H133.237V87H134.237ZM134.237 65.1818V66.1818H136.694V65.1818V64.1818H134.237V65.1818ZM136.694 65.1818H135.694V68.5341H136.694H137.694V65.1818H136.694ZM136.694 68.5341V69.5341H136.879V68.5341V67.5341H136.694V68.5341ZM136.879 68.5341L137.808 68.9027C138.159 68.0185 138.767 67.2951 139.68 66.7267L139.151 65.8778L138.623 65.029C137.376 65.8053 136.47 66.8527 135.949 68.1655L136.879 68.5341ZM139.151 65.8778L139.682 66.7254C140.601 66.1501 141.646 65.8551 142.844 65.8551V64.8551V63.8551C141.297 63.8551 139.88 64.2419 138.621 65.0303L139.151 65.8778ZM142.844 64.8551V65.8551C143.038 65.8551 143.257 65.8595 143.503 65.8686L143.54 64.8693L143.577 63.87C143.312 63.8602 143.068 63.8551 142.844 63.8551V64.8551ZM143.54 64.8693L143.503 65.8686C143.756 65.878 143.962 65.8872 144.124 65.8962L144.18 64.8977L144.235 63.8993C144.056 63.8893 143.837 63.8796 143.577 63.87L143.54 64.8693ZM144.18 64.8977H143.18V67.4688H144.18H145.18V64.8977H144.18ZM144.18 67.4688L144.344 66.4824C144.213 66.4604 143.999 66.4301 143.715 66.3923L143.583 67.3835L143.451 68.3748C143.735 68.4127 143.92 68.4392 144.015 68.4551L144.18 67.4688ZM143.583 67.3835L143.715 66.3923C143.381 66.3478 143.029 66.3267 142.66 66.3267V67.3267V68.3267C142.954 68.3267 143.217 68.3435 143.451 68.3748L143.583 67.3835ZM142.66 67.3267V66.3267C141.378 66.3267 140.197 66.6005 139.143 67.1722L139.62 68.0511L140.097 68.9301C140.824 68.5359 141.669 68.3267 142.66 68.3267V67.3267ZM139.62 68.0511L139.146 67.1704C138.111 67.7271 137.282 68.5092 136.677 69.5068L137.532 70.0256L138.387 70.5443C138.804 69.8563 139.368 69.3222 140.094 68.9319L139.62 68.0511ZM137.532 70.0256L136.677 69.5068C136.062 70.5207 135.765 71.6646 135.765 72.9091H136.765H137.765C137.765 71.9945 137.979 71.216 138.387 70.5443L137.532 70.0256ZM136.765 72.9091H135.765V87H136.765H137.765V72.9091H136.765ZM136.765 87V86H134.237V87V88H136.765V87ZM151.367 86.0341L150.826 86.8751L150.83 86.8775L151.367 86.0341ZM147.915 82.071L147.012 82.5L147.015 82.5061L147.915 82.071ZM147.915 70.3665L147.012 69.9373L147.011 69.9395L147.915 70.3665ZM151.282 66.3466L151.842 67.1752L151.843 67.1744L151.282 66.3466ZM159.691 65.5369L159.322 66.4665L159.329 66.4692L159.691 65.5369ZM162.646 67.5114L161.931 68.2109L161.938 68.2185L162.646 67.5114ZM164.734 70.8494L163.799 71.2049L163.8 71.2071L164.734 70.8494ZM165.501 76.8438V77.8438H166.501V76.8438H165.501ZM148.455 76.8438H147.455V77.8438H148.455V76.8438ZM148.455 74.6136V73.6136H147.455V74.6136H148.455ZM162.915 74.6136V75.6136H163.915V74.6136H162.915ZM162.063 70.8352L161.167 71.2794L161.172 71.2885L162.063 70.8352ZM159.719 68.1648L159.17 69.0005L159.174 69.0029L159.719 68.1648ZM152.617 68.2926L152.042 67.4744L152.042 67.4744L152.617 68.2926ZM150.146 71.2188L149.248 70.7771L149.246 70.7828L150.146 71.2188ZM149.251 75.196L148.251 75.1894V75.196H149.251ZM150.146 81.0767L149.237 81.4945L149.241 81.5025L150.146 81.0767ZM152.717 84.0739L153.256 83.232L153.256 83.232L152.717 84.0739ZM159.364 84.6562L158.985 83.7309L158.981 83.7325L159.364 84.6562ZM161.339 83.3636L160.626 82.6627L160.625 82.6628L161.339 83.3636ZM162.56 81.5597L162.87 80.6087L161.995 80.324L161.638 81.1722L162.56 81.5597ZM164.961 82.3409L165.902 82.6803L166.252 81.7094L165.27 81.39L164.961 82.3409ZM163.327 84.8835L162.612 84.1852L162.607 84.1897L163.327 84.8835ZM160.515 86.7585L160.898 87.6821L160.902 87.6804L160.515 86.7585ZM156.651 87.4545V86.4545C154.775 86.4545 153.207 86.0203 151.904 85.1907L151.367 86.0341L150.83 86.8775C152.501 87.9418 154.455 88.4545 156.651 88.4545V87.4545ZM151.367 86.0341L151.908 85.1931C150.586 84.3422 149.555 83.166 148.816 81.636L147.915 82.071L147.015 82.5061C147.905 84.3473 149.175 85.8131 150.826 86.8751L151.367 86.0341ZM147.915 82.071L148.819 81.6421C148.088 80.1026 147.708 78.3027 147.708 76.2188H146.708H145.708C145.708 78.5477 146.133 80.6493 147.012 82.5L147.915 82.071ZM146.708 76.2188H147.708C147.708 74.1451 148.087 72.3441 148.82 70.7935L147.915 70.3665L147.011 69.9395C146.134 71.7979 145.708 73.8984 145.708 76.2188H146.708ZM147.915 70.3665L148.819 70.7956C149.564 69.2265 150.574 68.0313 151.842 67.1752L151.282 66.3466L150.722 65.5179C149.13 66.5937 147.895 68.0784 147.012 69.9373L147.915 70.3665ZM151.282 66.3466L151.843 67.1744C153.103 66.3207 154.566 65.8835 156.268 65.8835V64.8835V63.8835C154.201 63.8835 152.34 64.4217 150.721 65.5188L151.282 66.3466ZM156.268 64.8835V65.8835C157.325 65.8835 158.341 66.0775 159.322 66.4665L159.691 65.5369L160.06 64.6074C158.844 64.1251 157.577 63.8835 156.268 63.8835V64.8835ZM159.691 65.5369L159.329 66.4692C160.287 66.8409 161.154 67.4166 161.931 68.2108L162.646 67.5114L163.36 66.8119C162.395 65.8258 161.292 65.0852 160.053 64.6046L159.691 65.5369ZM162.646 67.5114L161.938 68.2185C162.705 68.985 163.33 69.9718 163.799 71.2049L164.734 70.8494L165.668 70.494C165.115 69.0377 164.348 67.7991 163.353 66.8043L162.646 67.5114ZM164.734 70.8494L163.8 71.2071C164.257 72.4013 164.501 73.8559 164.501 75.5938H165.501H166.501C166.501 73.6763 166.233 71.968 165.668 70.4918L164.734 70.8494ZM165.501 75.5938H164.501V76.8438H165.501H166.501V75.5938H165.501ZM165.501 76.8438V75.8438H148.455V76.8438V77.8438H165.501V76.8438ZM148.455 76.8438H149.455V74.6136H148.455H147.455V76.8438H148.455ZM148.455 74.6136V75.6136H162.915V74.6136V73.6136H148.455V74.6136ZM162.915 74.6136H163.915C163.915 73.0734 163.602 71.6557 162.955 70.382L162.063 70.8352L161.172 71.2885C161.661 72.2496 161.915 73.3508 161.915 74.6136H162.915ZM162.063 70.8352L162.959 70.391C162.325 69.1122 161.426 68.0827 160.265 67.3267L159.719 68.1648L159.174 69.0029C160.02 69.5537 160.684 70.3044 161.167 71.2794L162.063 70.8352ZM159.719 68.1648L160.269 67.3291C159.095 66.558 157.75 66.1847 156.268 66.1847V67.1847V68.1847C157.399 68.1847 158.355 68.4647 159.17 69.0005L159.719 68.1648ZM156.268 67.1847V66.1847C154.696 66.1847 153.275 66.6083 152.042 67.4744L152.617 68.2926L153.192 69.1108C154.062 68.4996 155.074 68.1847 156.268 68.1847V67.1847ZM152.617 68.2926L152.042 67.4744C150.847 68.3146 149.915 69.4225 149.248 70.7772L150.146 71.2188L151.043 71.6603C151.569 70.5908 152.285 69.7479 153.192 69.1108L152.617 68.2926ZM150.146 71.2188L149.246 70.7828C148.589 72.1379 148.261 73.6117 148.251 75.1894L149.251 75.196L150.251 75.2026C150.259 73.9015 150.528 72.7238 151.046 71.6547L150.146 71.2188ZM149.251 75.196H148.251V76.5312H149.251H150.251V75.196H149.251ZM149.251 76.5312H148.251C148.251 78.3782 148.569 80.0412 149.237 81.4945L150.146 81.0767L151.054 80.6589C150.529 79.5175 150.251 78.1502 150.251 76.5312H149.251ZM150.146 81.0767L149.241 81.5025C149.92 82.9462 150.898 84.0957 152.177 84.9157L152.717 84.0739L153.256 83.232C152.32 82.6316 151.583 81.7829 151.05 80.6509L150.146 81.0767ZM152.717 84.0739L152.177 84.9157C153.469 85.7441 154.974 86.1392 156.651 86.1392V85.1392V84.1392C155.298 84.1392 154.18 83.8241 153.256 83.232L152.717 84.0739ZM156.651 85.1392V86.1392C157.786 86.1392 158.825 85.9624 159.747 85.58L159.364 84.6562L158.981 83.7325C158.35 83.9941 157.581 84.1392 156.651 84.1392V85.1392ZM159.364 84.6562L159.743 85.5816C160.64 85.2145 161.416 84.7122 162.052 84.0645L161.339 83.3636L160.625 82.6628C160.201 83.0947 159.661 83.454 158.985 83.7309L159.364 84.6562ZM161.339 83.3636L162.052 84.0646C162.673 83.4328 163.154 82.727 163.482 81.9471L162.56 81.5597L161.638 81.1722C161.417 81.6991 161.084 82.1959 160.626 82.6627L161.339 83.3636ZM162.56 81.5597L162.251 82.5106L164.651 83.2918L164.961 82.3409L165.27 81.39L162.87 80.6087L162.56 81.5597ZM164.961 82.3409L164.02 82.0015C163.742 82.7715 163.281 83.4995 162.612 84.1852L163.327 84.8835L164.043 85.5818C164.889 84.7145 165.517 83.7474 165.902 82.6803L164.961 82.3409ZM163.327 84.8835L162.607 84.1897C161.965 84.8561 161.146 85.4087 160.128 85.8366L160.515 86.7585L160.902 87.6804C162.138 87.1613 163.193 86.464 164.048 85.5773L163.327 84.8835ZM160.515 86.7585L160.131 85.835C159.158 86.2393 158.004 86.4545 156.651 86.4545V87.4545V88.4545C158.215 88.4545 159.637 88.2058 160.898 87.6821L160.515 86.7585ZM179.666 65.1818H180.666V64.1818H179.666V65.1818ZM179.666 67.3835V68.3835H180.666V67.3835H179.666ZM169.254 67.3835H168.254V68.3835H169.254V67.3835ZM169.254 65.1818V64.1818H168.254V65.1818H169.254ZM172.507 59.9545V58.9545H171.507V59.9545H172.507ZM175.05 59.9545H176.05V58.9545H175.05V59.9545ZM175.518 83.4489L174.661 83.9634L174.665 83.9703L175.518 83.4489ZM176.74 84.5426L176.342 85.46L176.349 85.4631L176.357 85.4662L176.74 84.5426ZM179.197 84.7983L179.355 85.7857L179.375 85.7827L179.394 85.7789L179.197 84.7983ZM179.822 84.6562L180.796 84.4265L180.56 83.4281L179.568 83.6892L179.822 84.6562ZM180.362 86.9432L180.721 87.8765L181.536 87.5631L181.335 86.7135L180.362 86.9432ZM179.453 87.1989L179.247 86.2203L179.235 86.2229L179.223 86.2258L179.453 87.1989ZM175.433 86.7159L175.002 87.6182L175.006 87.6201L175.433 86.7159ZM173.331 84.8977L174.157 84.3341L174.157 84.3341L173.331 84.8977ZM179.666 65.1818H178.666V67.3835H179.666H180.666V65.1818H179.666ZM179.666 67.3835V66.3835H169.254V67.3835V68.3835H179.666V67.3835ZM169.254 67.3835H170.254V65.1818H169.254H168.254V67.3835H169.254ZM169.254 65.1818V66.1818H179.666V65.1818V64.1818H169.254V65.1818ZM172.507 59.9545V60.9545H175.05V59.9545V58.9545H172.507V59.9545ZM175.05 59.9545H174.05V81.304H175.05H176.05V59.9545H175.05ZM175.05 81.304H174.05C174.05 82.3106 174.22 83.2283 174.661 83.9634L175.518 83.4489L176.376 82.9344C176.192 82.6277 176.05 82.1155 176.05 81.304H175.05ZM175.518 83.4489L174.665 83.9703C175.074 84.6398 175.633 85.1524 176.342 85.46L176.74 84.5426L177.138 83.6253C176.843 83.4973 176.588 83.2807 176.372 82.9274L175.518 83.4489ZM176.74 84.5426L176.357 85.4662C176.986 85.7273 177.652 85.8551 178.345 85.8551V84.8551V83.8551C177.902 83.8551 177.498 83.7746 177.123 83.619L176.74 84.5426ZM178.345 84.8551V85.8551C178.711 85.8551 179.051 85.8345 179.355 85.7857L179.197 84.7983L179.039 83.8109C178.87 83.8379 178.642 83.8551 178.345 83.8551V84.8551ZM179.197 84.7983L179.394 85.7789C179.644 85.7287 179.873 85.677 180.077 85.6233L179.822 84.6562L179.568 83.6892C179.412 83.7302 179.224 83.7732 179.001 83.8177L179.197 84.7983ZM179.822 84.6562L178.849 84.886L179.389 87.1729L180.362 86.9432L181.335 86.7135L180.796 84.4265L179.822 84.6562ZM180.362 86.9432L180.003 86.0098C179.822 86.0796 179.574 86.1516 179.247 86.2203L179.453 87.1989L179.659 88.1774C180.052 88.0946 180.41 87.9961 180.721 87.8765L180.362 86.9432ZM179.453 87.1989L179.223 86.2258C178.963 86.2873 178.601 86.3267 178.118 86.3267V87.3267V88.3267C178.695 88.3267 179.223 88.2809 179.684 88.1719L179.453 87.1989ZM178.118 87.3267V86.3267C177.342 86.3267 176.592 86.1576 175.86 85.8118L175.433 86.7159L175.006 87.6201C175.998 88.0886 177.038 88.3267 178.118 88.3267V87.3267ZM175.433 86.7159L175.864 85.8136C175.176 85.485 174.61 84.9981 174.157 84.3341L173.331 84.8977L172.505 85.4614C173.15 86.4072 173.985 87.1325 175.002 87.6182L175.433 86.7159ZM173.331 84.8977L174.157 84.3341C173.744 83.7293 173.507 82.9383 173.507 81.9006H172.507H171.507C171.507 83.2492 171.819 84.4563 172.505 85.4614L173.331 84.8977ZM172.507 81.9006H173.507V59.9545H172.507H171.507V81.9006H172.507ZM188.406 87V88H189.406V87H188.406ZM185.877 87H184.877V88H185.877V87ZM185.877 57.9091V56.9091H184.877V57.9091H185.877ZM188.406 57.9091H189.406V56.9091H188.406V57.9091ZM188.406 68.6051H187.406V69.6051H188.406V68.6051ZM188.633 68.6051V69.6051H189.277L189.543 69.0183L188.633 68.6051ZM191.005 65.9062L190.476 65.0574L190.473 65.0595L191.005 65.9062ZM202.539 87V88H203.539V87H202.539ZM199.996 87H198.996V88H199.996V87ZM198.491 68.7756L197.767 69.4661L197.774 69.4727L198.491 68.7756ZM191.346 67.9517L191.822 68.831L191.822 68.831L191.346 67.9517ZM189.187 70.0824L188.319 69.5862L188.317 69.5891L189.187 70.0824ZM188.406 73.3636H187.406V87H188.406H189.406V73.3636H188.406ZM188.406 87V86H185.877V87V88H188.406V87ZM185.877 87H186.877V57.9091H185.877H184.877V87H185.877ZM185.877 57.9091V58.9091H188.406V57.9091V56.9091H185.877V57.9091ZM188.406 57.9091H187.406V68.6051H188.406H189.406V57.9091H188.406ZM188.406 68.6051V69.6051H188.633V68.6051V67.6051H188.406V68.6051ZM188.633 68.6051L189.543 69.0183C189.972 68.0739 190.629 67.3234 191.537 66.753L191.005 65.9062L190.473 65.0595C189.241 65.8338 188.316 66.8825 187.722 68.1919L188.633 68.6051ZM191.005 65.9062L191.534 66.7551C192.414 66.2068 193.581 65.8977 195.096 65.8977V64.8977V63.8977C193.316 63.8977 191.755 64.261 190.476 65.0574L191.005 65.9062ZM195.096 64.8977V65.8977C196.434 65.8977 197.562 66.1712 198.511 66.6858L198.988 65.8068L199.465 64.9278C198.179 64.2303 196.713 63.8977 195.096 63.8977V64.8977ZM198.988 65.8068L198.511 66.6858C199.446 67.1927 200.179 67.9395 200.717 68.9584L201.602 68.4915L202.486 68.0246C201.774 66.676 200.765 65.6331 199.465 64.9278L198.988 65.8068ZM201.602 68.4915L200.717 68.9584C201.247 69.962 201.539 71.2498 201.539 72.8665H202.539H203.539C203.539 71.0173 203.206 69.3883 202.486 68.0246L201.602 68.4915ZM202.539 72.8665H201.539V87H202.539H203.539V72.8665H202.539ZM202.539 87V86H199.996V87V88H202.539V87ZM199.996 87H200.996V73.0227H199.996H198.996V87H199.996ZM199.996 73.0227H200.996C200.996 71.0315 200.436 69.3411 199.208 68.0784L198.491 68.7756L197.774 69.4727C198.553 70.2744 198.996 71.4155 198.996 73.0227H199.996ZM198.491 68.7756L199.214 68.0851C197.998 66.8107 196.373 66.2131 194.457 66.2131V67.2131V68.2131C195.931 68.2131 196.995 68.6571 197.767 69.466L198.491 68.7756ZM194.457 67.2131V66.2131C193.147 66.2131 191.943 66.4912 190.87 67.0724L191.346 67.9517L191.822 68.831C192.567 68.4274 193.437 68.2131 194.457 68.2131V67.2131ZM191.346 67.9517L190.87 67.0724C189.791 67.6567 188.938 68.5022 188.319 69.5862L189.187 70.0824L190.055 70.5785C190.496 69.8065 191.083 69.2316 191.822 68.831L191.346 67.9517ZM189.187 70.0824L188.317 69.5891C187.695 70.6858 187.406 71.9566 187.406 73.3636H188.406H189.406C189.406 72.2328 189.637 71.3161 190.057 70.5756L189.187 70.0824ZM209.226 87H208.226V88H209.226V87ZM209.226 65.1818V64.1818H208.226V65.1818H209.226ZM211.768 65.1818H212.768V64.1818H211.768V65.1818ZM211.768 87V88H212.768V87H211.768ZM209.183 60.9062L208.485 61.6225L208.495 61.6317L209.183 60.9062ZM209.183 58.3352L209.872 59.0608L209.881 59.0515L209.183 58.3352ZM211.854 58.3352L211.156 59.0515L211.165 59.0607L211.854 58.3352ZM211.854 60.9062L212.542 61.6318L212.552 61.6225L211.854 60.9062ZM209.226 87H210.226V65.1818H209.226H208.226V87H209.226ZM209.226 65.1818V66.1818H211.768V65.1818V64.1818H209.226V65.1818ZM211.768 65.1818H210.768V87H211.768H212.768V65.1818H211.768ZM211.768 87V86H209.226V87V88H211.768V87ZM210.518 61.4318V60.4318C210.247 60.4318 210.05 60.3504 209.871 60.1808L209.183 60.9062L208.495 61.6317C209.055 62.1628 209.748 62.4318 210.518 62.4318V61.4318ZM209.183 60.9062L209.881 60.19C209.699 60.0126 209.629 59.8376 209.629 59.6136H208.629H207.629C207.629 60.3934 207.929 61.0802 208.485 61.6225L209.183 60.9062ZM208.629 59.6136H209.629C209.629 59.3905 209.698 59.2253 209.871 59.0607L209.183 58.3352L208.495 57.6098C207.93 58.1459 207.629 58.833 207.629 59.6136H208.629ZM209.183 58.3352L209.881 59.0515C210.062 58.8756 210.255 58.7955 210.518 58.7955V57.7955V56.7955C209.74 56.7955 209.044 57.0752 208.485 57.619L209.183 58.3352ZM210.518 57.7955V58.7955C210.782 58.7955 210.975 58.8756 211.156 59.0515L211.854 58.3352L212.552 57.619C211.993 57.0752 211.297 56.7955 210.518 56.7955V57.7955ZM211.854 58.3352L211.165 59.0607C211.339 59.2253 211.408 59.3905 211.408 59.6136H212.408H213.408C213.408 58.833 213.107 58.1459 212.542 57.6098L211.854 58.3352ZM212.408 59.6136H211.408C211.408 59.8376 211.338 60.0126 211.156 60.19L211.854 60.9062L212.552 61.6225C213.108 61.0802 213.408 60.3934 213.408 59.6136H212.408ZM211.854 60.9062L211.165 60.1808C210.987 60.3504 210.79 60.4318 210.518 60.4318V61.4318V62.4318C211.289 62.4318 211.982 62.1628 212.542 61.6317L211.854 60.9062ZM220.984 87V88H221.984V87H220.984ZM218.455 87H217.455V88H218.455V87ZM218.455 65.1818V64.1818H217.455V65.1818H218.455ZM220.913 65.1818H221.913V64.1818H220.913V65.1818ZM220.913 68.6051H219.913V69.6051H220.913V68.6051ZM221.14 68.6051V69.6051H221.782L222.049 69.0212L221.14 68.6051ZM223.526 65.9205L224.055 66.7693L224.057 66.768L223.526 65.9205ZM231.424 65.821L230.938 66.6952L230.947 66.7001L231.424 65.821ZM234.023 68.5057L233.136 68.967L233.139 68.9726L234.023 68.5057ZM234.961 87V88H235.961V87H234.961ZM232.433 87H231.433V88H232.433V87ZM230.927 68.7756L230.203 69.4661L230.207 69.4695L230.927 68.7756ZM223.867 67.9517L223.383 67.0767L223.383 67.0767L223.867 67.9517ZM221.751 70.0824L220.879 69.593L220.877 69.596L221.751 70.0824ZM220.984 73.3636H219.984V87H220.984H221.984V73.3636H220.984ZM220.984 87V86H218.455V87V88H220.984V87ZM218.455 87H219.455V65.1818H218.455H217.455V87H218.455ZM218.455 65.1818V66.1818H220.913V65.1818V64.1818H218.455V65.1818ZM220.913 65.1818H219.913V68.6051H220.913H221.913V65.1818H220.913ZM220.913 68.6051V69.6051H221.14V68.6051V67.6051H220.913V68.6051ZM221.14 68.6051L222.049 69.0212C222.476 68.0888 223.136 67.3417 224.055 66.7693L223.526 65.9205L222.998 65.0716C221.758 65.8439 220.827 66.8866 220.231 68.189L221.14 68.6051ZM223.526 65.9205L224.057 66.768C224.952 66.2077 226.102 65.8977 227.56 65.8977V64.8977V63.8977C225.818 63.8977 224.279 64.2696 222.996 65.0729L223.526 65.9205ZM227.56 64.8977V65.8977C228.885 65.8977 230.001 66.1744 230.938 66.6952L231.424 65.821L231.91 64.9469C230.631 64.2366 229.171 63.8977 227.56 63.8977V64.8977ZM231.424 65.821L230.947 66.7001C231.88 67.2061 232.608 67.9511 233.136 68.967L234.023 68.5057L234.911 68.0443C234.208 66.6928 233.203 65.6481 231.901 64.942L231.424 65.821ZM234.023 68.5057L233.139 68.9726C233.669 69.977 233.961 71.2603 233.961 72.8665H234.961H235.961C235.961 71.0257 235.627 69.4018 234.908 68.0388L234.023 68.5057ZM234.961 72.8665H233.961V87H234.961H235.961V72.8665H234.961ZM234.961 87V86H232.433V87V88H234.961V87ZM232.433 87H233.433V73.0227H232.433H231.433V87H232.433ZM232.433 73.0227H233.433C233.433 71.0388 232.871 69.3516 231.647 68.0817L230.927 68.7756L230.207 69.4695C230.991 70.2829 231.433 71.4271 231.433 73.0227H232.433ZM230.927 68.7756L231.65 68.0851C230.436 66.813 228.822 66.2131 226.921 66.2131V67.2131V68.2131C228.373 68.2131 229.429 68.6548 230.203 69.466L230.927 68.7756ZM226.921 67.2131V66.2131C225.628 66.2131 224.439 66.4924 223.383 67.0767L223.867 67.9517L224.351 68.8267C225.075 68.4262 225.923 68.2131 226.921 68.2131V67.2131ZM223.867 67.9517L223.383 67.0767C222.323 67.6633 221.486 68.5107 220.879 69.593L221.751 70.0824L222.623 70.5718C223.057 69.798 223.631 69.2249 224.351 68.8267L223.867 67.9517ZM221.751 70.0824L220.877 69.596C220.267 70.6912 219.984 71.9596 219.984 73.3636H220.984H221.984C221.984 72.2298 222.211 71.3107 222.624 70.5688L221.751 70.0824ZM243.92 78.7614L242.92 78.7699L242.94 81.0577L244.606 79.4895L243.92 78.7614ZM243.892 75.4517V74.4517H242.883L242.892 75.4603L243.892 75.4517ZM244.46 75.4517V76.4517H244.876L245.169 76.1573L244.46 75.4517ZM254.688 65.1818V64.1818H254.272L253.979 64.4762L254.688 65.1818ZM257.884 65.1818L258.591 65.8884L260.295 64.1818H257.884V65.1818ZM247.784 75.2955L247.968 76.2783L248.273 76.2212L248.492 76.0021L247.784 75.2955ZM247.557 75.3381L247.373 74.3552L247.085 74.4092L246.871 74.61L247.557 75.3381ZM241.619 87H240.619V88H241.619V87ZM241.619 57.9091V56.9091H240.619V57.9091H241.619ZM244.148 57.9091H245.148V56.9091H244.148V57.9091ZM244.148 87V88H245.148V87H244.148ZM255.213 87L254.429 87.6203L254.729 88H255.213V87ZM246.349 75.7926L245.657 75.0716L245.002 75.7007L245.565 76.4129L246.349 75.7926ZM248.168 74.0455L248.951 73.4237L248.267 72.5627L247.475 73.3244L248.168 74.0455ZM258.452 87V88H260.522L259.235 86.3782L258.452 87ZM243.92 78.7614L244.92 78.7528L244.892 75.4431L243.892 75.4517L242.892 75.4603L242.92 78.7699L243.92 78.7614ZM243.892 75.4517V76.4517H244.46V75.4517V74.4517H243.892V75.4517ZM244.46 75.4517L245.169 76.1573L255.396 65.8875L254.688 65.1818L253.979 64.4762L243.752 74.7461L244.46 75.4517ZM254.688 65.1818V66.1818H257.884V65.1818V64.1818H254.688V65.1818ZM257.884 65.1818L257.176 64.4752L247.076 74.5888L247.784 75.2955L248.492 76.0021L258.591 65.8884L257.884 65.1818ZM247.784 75.2955L247.6 74.3126L247.373 74.3552L247.557 75.3381L247.741 76.3209L247.968 76.2783L247.784 75.2955ZM247.557 75.3381L246.871 74.61L243.235 78.0332L243.92 78.7614L244.606 79.4895L248.242 76.0662L247.557 75.3381ZM241.619 87H242.619V57.9091H241.619H240.619V87H241.619ZM241.619 57.9091V58.9091H244.148V57.9091V56.9091H241.619V57.9091ZM244.148 57.9091H243.148V87H244.148H245.148V57.9091H244.148ZM244.148 87V86H241.619V87V88H244.148V87ZM255.213 87L255.997 86.3797L247.134 75.1723L246.349 75.7926L245.565 76.4129L254.429 87.6203L255.213 87ZM246.349 75.7926L247.042 76.5137L248.86 74.7665L248.168 74.0455L247.475 73.3244L245.657 75.0716L246.349 75.7926ZM248.168 74.0455L247.384 74.6672L257.668 87.6218L258.452 87L259.235 86.3782L248.951 73.4237L248.168 74.0455ZM258.452 87V86H255.213V87V88H258.452V87Z"
            fill="black" mask="url(#path-65-outside-1_184_70)" />
    </g>
    <defs>
        <clipPath id="clip0_184_70">
            <rect width="150" height="350" fill="white" transform="matrix(0 1 -1 0 350 0)" />
        </clipPath>
    </defs>
</svg>